<?xml version="1.0" encoding="UTF-8"?>
<!-- Created with Inkscape (http://www.inkscape.org/) -->
<svg width="256mm" height="64mm" version="1.1" viewBox="0 0 256 64" xmlns="http://www.w3.org/2000/svg">
 <g transform="matrix(.86069 0 0 1.1265 -15.485 65.518)" stroke-width="1.2689" aria-label="Twins  fT">
  <path d="m30.038-15.582 3.9841-1.5468q0.39841-0.16405 0.60934-0.37498 0.23436-0.23436 0.23436-0.74995v-24.889h-6.8433q-0.39841 0-0.65621 0.23436-0.23436 0.21092-0.35154 0.65621l-1.1718 5.0622h-3.5388v-10.218h33.232v10.218h-3.5623l-1.1718-5.0622q-0.11718-0.42185-0.39841-0.65621-0.2578-0.23436-0.5859-0.23436h-6.8433v24.889q0 0.51559 0.2578 0.77339 0.2578 0.23436 0.5859 0.35154l3.9841 1.5468v2.1796h-17.765z"/>
  <path d="m63.388-35.174q-0.11718-0.37498-0.39841-0.65621-0.28123-0.30467-0.70308-0.49216l-1.9686-0.93744v-2.1092h14.108v2.1092l-3.5388 1.2655 3.9373 11.226 0.93744 3.8904h0.51559l4.3357-13.194 2.1796-5.2965h4.4997l5.32 14.46 1.0781 4.031h0.51559l4.5935-14.249-3.281-2.1327v-2.1092h10.734v2.1092l-2.0858 1.6405q-0.3281 0.2578-0.67964 0.56246-0.35154 0.28123-0.46872 0.63277l-5.4606 15.96-2.5077 5.2965h-5.4606l-4.9919-13.03-0.82026-3.6795h-0.42185l-3.7498 11.413-2.4608 5.2965h-5.6012z"/>
  <path d="m120.62-42.275q-0.86714 0-1.7577-0.3281-0.86713-0.3281-1.5936-0.89057-0.70308-0.56246-1.1484-1.3124-0.44529-0.77339-0.44529-1.664 0-0.93744 0.39841-1.664 0.42185-0.72652 1.1015-1.1952 0.67964-0.49216 1.5702-0.72652 0.89057-0.2578 1.8749-0.2578 1.1484 0 2.0858 0.23436 0.93744 0.21092 1.6171 0.65621 0.67965 0.42185 1.0546 1.1015 0.37498 0.65621 0.37498 1.5468 0 0.96088-0.44528 1.7811-0.42185 0.82026-1.1484 1.4296-0.70308 0.5859-1.6405 0.93744-0.91401 0.35154-1.8983 0.35154zm-8.1323 26.717 3.8201-1.3827q0.42184-0.16405 0.67964-0.37498 0.2578-0.23436 0.2578-0.70308v-15.562q0-0.46872-0.28124-0.70308-0.25779-0.23436-0.63277-0.37498l-3.7966-1.4999v-2.2264l12.421-0.46872v20.835q0 0.46872 0.28123 0.72652 0.28123 0.23436 0.60934 0.35154l3.8201 1.3827v2.1561h-17.179z"/>
  <path d="m136.63-15.558 2.9764-1.2655q0.39841-0.18749 0.63277-0.39841 0.2578-0.21092 0.2578-0.67965v-16.194q0-0.46872-0.28123-0.67964-0.2578-0.23436-0.60934-0.39841l-2.9295-1.2655v-2.2264l11.015-1.1718v4.0544h0.37498q1.1249-1.4296 2.2499-2.2733 1.1249-0.86713 2.2264-1.289 1.1015-0.44528 2.1561-0.56246 1.0781-0.14062 2.1092-0.14062 1.7811 0 3.3279 0.49216 1.5702 0.49216 2.7186 1.5468 1.1718 1.0546 1.8514 2.6951 0.67965 1.6405 0.67965 3.9138v13.382q0 0.56246 0.23436 0.79683 0.25779 0.21092 0.65621 0.39841l2.6248 1.2655v2.1561h-14.577v-2.1561l2.3436-1.2655q0.39841-0.21092 0.67964-0.42185 0.28124-0.21092 0.28124-0.77339v-10.312q0-1.6171-0.16406-2.8592-0.16405-1.2421-0.6562-2.0858-0.49216-0.8437-1.3827-1.289-0.86713-0.44528-2.2733-0.44528-0.63277 0-1.3124 0.07031-0.67964 0.07031-1.3358 0.28123-0.65621 0.21092-1.2656 0.63277-0.5859 0.39841-1.0312 1.0781v15.046q0 0.46872 0.25779 0.65621 0.2578 0.18749 0.65621 0.42185l2.1796 1.2655v2.1561h-14.671z"/>
  <path d="m187.83-12.769q-1.5468 0-3.0701-0.16405-1.5233-0.16405-2.9295-0.42185-1.3827-0.2578-2.6014-0.56246-1.1952-0.30467-2.1327-0.60934v-7.0777h3.9607l0.70308 2.1092q0.0703 0.18749 0.16405 0.37498 0.0937 0.16405 0.21093 0.3281 0.11718 0.16405 0.23436 0.30467 0.14061 0.11718 0.28123 0.21092 0.49216 0.35154 1.1015 0.70308 0.63278 0.35154 1.3827 0.63277 0.74995 0.2578 1.6171 0.42185 0.89057 0.16405 1.8749 0.16405 0.89057 0 1.664-0.23436 0.79683-0.23436 1.3593-0.65621 0.5859-0.44528 0.91401-1.0312 0.35154-0.60934 0.35154-1.3593 0-0.70308-0.23436-1.1952-0.23436-0.51559-0.72652-0.91401-0.46872-0.39841-1.1952-0.67964-0.72652-0.30467-1.7108-0.5859-1.1484-0.3281-2.5077-0.63277-1.3593-0.3281-2.4374-0.63277-1.6874-0.46872-2.9529-1.1952-1.2421-0.72652-2.0624-1.6405-0.82026-0.93744-1.2187-2.0155-0.39842-1.1015-0.39842-2.2967 0-1.9921 1.0078-3.5857 1.0078-1.6171 2.7186-2.742 1.7108-1.1249 3.9607-1.7343t4.7341-0.60934q1.4765 0 2.7654 0.09374t2.4139 0.2578q1.1484 0.14062 2.1327 0.37498 1.0078 0.21092 1.9218 0.46872v7.1714h-3.9373l-0.70308-2.2967q-0.11718-0.3281-0.39841-0.5859-0.28123-0.2578-0.53903-0.44528-0.39841-0.2578-0.96088-0.51559-0.53903-0.2578-1.1952-0.46872-0.63277-0.21092-1.3593-0.3281-0.72651-0.14062-1.453-0.14062-0.89057 0-1.5702 0.21092-0.65621 0.21092-1.1249 0.5859-0.44528 0.37498-0.67964 0.89057-0.23436 0.49216-0.23436 1.0546 0 0.67964 0.28123 1.2421 0.28123 0.53903 0.82026 0.98431t1.3359 0.82026q0.79682 0.35154 1.8514 0.63277 1.1952 0.3281 2.4842 0.65621 1.289 0.3281 2.3436 0.65621 1.5936 0.46872 2.7889 1.1484 1.2187 0.67964 2.0155 1.5702 0.79682 0.89057 1.1952 1.9921 0.39841 1.1015 0.39841 2.4139 0 2.3202-1.0781 4.0076-1.0546 1.664-2.8123 2.7655-1.7577 1.0781-4.0544 1.5937-2.2733 0.51559-4.7106 0.51559z"/>
  <path d="m248.06-14.995 3.4217-1.0218q0.39841-0.12123 0.65621-0.2771 0.25779-0.17319 0.25779-0.51956v-11.69h-4.8278v-3.0308h4.9216q0.30467-2.2861 1.453-4.0006 1.1718-1.7145 2.9061-2.8576 1.7577-1.143 3.9607-1.7145 2.2264-0.57151 4.6403-0.57151 0.49216 0 1.1952 0.03463 0.70308 0.01732 1.453 0.06927 0.74996 0.05195 1.4765 0.12123 0.72651 0.06927 1.289 0.13855v4.6587h-1.7811q-0.5859-0.17318-1.4999-0.38101-0.89057-0.20782-1.8749-0.38101-0.96088-0.1905-1.8514-0.31173t-1.453-0.12123q-0.60934 0-1.0078 0.12123-0.37498 0.12123-0.63278 0.41565-0.3281 0.39833-0.49215 1.6453-0.16406 1.2469-0.18749 3.1347h7.3824v3.0308h-7.3589v11.69q0 0.34637 0.2578 0.53688 0.28123 0.17318 0.65621 0.25978l4.0076 1.0218v1.5933h-16.968z" stroke-width="1.0908"/>
  <path d="m281.95-15.582 3.9841-1.5468q0.39842-0.16405 0.60934-0.37498 0.23436-0.23436 0.23436-0.74995v-24.889h-6.8433q-0.39842 0-0.65621 0.23436-0.23436 0.21092-0.35154 0.65621l-1.1718 5.0622h-3.5388v-10.218h33.232v10.218h-3.5623l-1.1718-5.0622q-0.11718-0.42185-0.39841-0.65621-0.2578-0.23436-0.5859-0.23436h-6.8433v24.889q0 0.51559 0.2578 0.77339 0.2578 0.23436 0.5859 0.35154l3.9841 1.5468v2.1796h-17.765z"/>
 </g>
 <g transform="matrix(.91504 0 0 .9138 159.06 16.141)" fill="" fill-rule="evenodd">
  <path d="m30.93 7.908a0.737 0.737 0 0 1-0.205-0.503 0.707 0.707 0 0 1 1.206-0.504c0.141 0.142 0.213 0.32 0.213 0.504a0.717 0.717 0 0 1-0.71 0.71 0.713 0.713 0 0 1-0.503-0.207m-2.008 2.008a0.74 0.74 0 0 1-0.206-0.504c0-0.184 0.071-0.361 0.206-0.503a0.715 0.715 0 0 1 1.007 0c0.135 0.142 0.206 0.32 0.206 0.503 0 0.178-0.07 0.362-0.206 0.504a0.725 0.725 0 0 1-0.503 0.206 0.725 0.725 0 0 1-0.504-0.206m-2.007 2a0.71 0.71 0 1 1 1.007 0 0.704 0.704 0 0 1-1.007 0m-2.008 2.008a0.713 0.713 0 0 1 0-1 0.716 0.716 0 0 1 1.007 0 0.71 0.71 0 0 1 0 1 0.696 0.696 0 0 1-0.503 0.206 0.708 0.708 0 0 1-0.504-0.206m-2 2.008a0.694 0.694 0 0 1 0-1 0.693 0.693 0 0 1 1 0 0.68 0.68 0 0 1 0.205 0.496 0.685 0.685 0 0 1-0.205 0.504 0.684 0.684 0 0 1-0.504 0.205 0.68 0.68 0 0 1-0.497-0.205m-2.22 1.504c0-0.178 0.072-0.363 0.213-0.504a0.706 0.706 0 0 1 1.206 0.504 0.696 0.696 0 0 1-0.206 0.503 0.713 0.713 0 0 1-1.213-0.503zm-1.794 2.51a0.697 0.697 0 0 1-0.206-0.503 0.7055 0.7055 0 1 1 1.411 0 0.697 0.697 0 0 1-0.205 0.504 0.71 0.71 0 0 1-1 0m-2.008 2a0.71 0.71 0 0 1 0-1 0.707 0.707 0 0 1 1 0c0.142 0.141 0.213 0.318 0.213 0.503a0.687 0.687 0 0 1-0.213 0.497 0.685 0.685 0 0 1-0.496 0.212 0.7 0.7 0 0 1-0.504-0.212m-2.007 2.007a0.709 0.709 0 1 1 1.007 0 0.703 0.703 0 0 1-1.007 0m-2.008 2.007a0.707 0.707 0 0 1 0-1 0.715 0.715 0 0 1 1.008 0 0.71 0.71 0 0 1 0 1 0.695 0.695 0 0 1-0.504 0.207 0.695 0.695 0 0 1-0.504-0.207m-2 2.008a0.692 0.692 0 0 1-0.213-0.504c0-0.177 0.071-0.36 0.213-0.503a0.72 0.72 0 0 1 1 0 0.739 0.739 0 0 1 0.206 0.503 0.713 0.713 0 0 1-0.206 0.504 0.697 0.697 0 0 1-0.504 0.206 0.681 0.681 0 0 1-0.496-0.206m-2.008 2.008a0.693 0.693 0 0 1-0.212-0.504c0-0.177 0.07-0.362 0.212-0.504a0.72 0.72 0 0 1 1 0 0.708 0.708 0 0 1 0.207 0.504 0.686 0.686 0 0 1-0.206 0.504 0.714 0.714 0 0 1-1 0m-2.008 2.007a0.696 0.696 0 0 1-0.206-0.503 0.706 0.706 0 0 1 1.206-0.504 0.704 0.704 0 0 1 0 1.007 0.712 0.712 0 0 1-1 0"/>
  <path d="m7.862 7.908a0.737 0.737 0 0 0 0.206-0.503 0.707 0.707 0 0 0-1.206-0.504 0.706 0.706 0 0 0-0.213 0.504 0.717 0.717 0 0 0 0.71 0.71c0.184 0 0.369-0.071 0.503-0.207m2.008 2.008a0.74 0.74 0 0 0 0.205-0.504 0.727 0.727 0 0 0-0.205-0.503 0.715 0.715 0 0 0-1.007 0 0.726 0.726 0 0 0-0.206 0.503c0 0.178 0.07 0.362 0.206 0.504 0.142 0.135 0.319 0.206 0.503 0.206s0.362-0.07 0.504-0.206m2.007 2a0.71 0.71 0 1 0-1.007 0 0.704 0.704 0 0 0 1.007 0m2.008 2.008a0.713 0.713 0 0 0 0-1 0.716 0.716 0 0 0-1.007 0 0.71 0.71 0 0 0 0 1c0.142 0.142 0.319 0.206 0.503 0.206a0.708 0.708 0 0 0 0.504-0.206m2 2.008a0.694 0.694 0 0 0 0-1 0.693 0.693 0 0 0-1 0 0.68 0.68 0 0 0-0.206 0.496c0 0.184 0.064 0.369 0.206 0.504 0.135 0.142 0.32 0.205 0.504 0.205a0.68 0.68 0 0 0 0.496-0.205m2.22 1.504a0.718 0.718 0 0 0-0.212-0.504 0.706 0.706 0 0 0-1.206 0.504c0 0.184 0.064 0.361 0.206 0.503a0.713 0.713 0 0 0 1.213-0.503zm1.795 2.51a0.697 0.697 0 0 0 0.206-0.503 0.7055 0.7055 0 1 0-1.411 0c0 0.184 0.063 0.362 0.205 0.504a0.71 0.71 0 0 0 1 0m2.007 2a0.71 0.71 0 0 0 0-1 0.707 0.707 0 0 0-1 0 0.704 0.704 0 0 0-0.213 0.503c0 0.177 0.072 0.362 0.214 0.497a0.685 0.685 0 0 0 0.496 0.212 0.7 0.7 0 0 0 0.503-0.212m2.008 2.007a0.709 0.709 0 1 0-1.008 0 0.703 0.703 0 0 0 1.007 0m2.008 2.007a0.707 0.707 0 0 0 0-1 0.715 0.715 0 0 0-1.007 0 0.71 0.71 0 0 0 0 1c0.142 0.143 0.32 0.207 0.504 0.207a0.695 0.695 0 0 0 0.503-0.207m2 2.008a0.692 0.692 0 0 0 0.213-0.504 0.716 0.716 0 0 0-0.212-0.503 0.72 0.72 0 0 0-1 0 0.739 0.739 0 0 0-0.206 0.503c0 0.185 0.07 0.37 0.206 0.504 0.142 0.142 0.32 0.206 0.503 0.206a0.681 0.681 0 0 0 0.497-0.206m2.007 2.008a0.693 0.693 0 0 0 0.213-0.504 0.716 0.716 0 0 0-0.213-0.504 0.72 0.72 0 0 0-1 0 0.708 0.708 0 0 0-0.206 0.504c0 0.184 0.064 0.369 0.206 0.504a0.714 0.714 0 0 0 1 0m2.008 2.007a0.696 0.696 0 0 0 0.206-0.503 0.706 0.706 0 0 0-1.206-0.504 0.704 0.704 0 0 0 0 1.007 0.712 0.712 0 0 0 1 0m-19.304-23.532-4.308-4.309c3.329-2.563 7.008-3.848 11.037-3.852 4.008-4e-3 7.69 1.284 11.045 3.86l-4.316 4.315c-2.06-1.34-4.304-2.01-6.733-2.005-2.46 5e-3 -4.7 0.671-6.725 1.99zm-4.247 17.718-4.305 4.305c-2.542-3.333-3.815-7.012-3.81-11.04 3e-3 -4.065 1.27-7.745 3.798-11.04l4.303 4.305c-1.35 2.042-2.03 4.286-2.035 6.733-4e-3 2.415 0.681 4.66 2.05 6.739zm17.74 4.282 4.291 4.291c-3.288 2.534-6.951 3.817-10.989 3.849-4.077 0.032-7.782-1.25-11.115-3.84l4.285-4.286c2.064 1.403 4.332 2.1 6.805 2.083 2.435-0.017 4.675-0.718 6.723-2.097zm4.243-17.756 4.31-4.311c2.592 3.332 3.873 7.037 3.841 11.115-0.032 4.021-1.317 7.682-3.854 10.984l-4.306-4.306c1.329-2.02 2.01-4.227 2.04-6.625 0.029-2.486-0.65-4.771-2.031-6.857zm4.473 19.14a2.9945 2.9945 0 1 1 0 5.989 2.9945 2.9945 0 0 1 0-5.989m-30.857 6e-3a2.9945 2.9945 0 1 1 0 5.989 2.9945 2.9945 0 0 1 0-5.989m30.885-30.885a2.994 2.994 0 1 1 0 5.988 2.994 2.994 0 0 1 0-5.988m-30.961-0.053a2.994 2.994 0 1 1 0 5.988 2.994 2.994 0 0 1 0-5.988"/>
 </g>
</svg>
