<?xml version="1.0" encoding="UTF-8"?>
<!-- Created with Inkscape (http://www.inkscape.org/) -->
<svg width="256mm" height="200mm" shape-rendering="crispEdges" version="1.1" viewBox="0 0 256 200" xmlns="http://www.w3.org/2000/svg">
 <g transform="matrix(.72338 0 0 1.1265 11.227 68.742)" stroke-width="1.2689" aria-label="Twins  fT">
  <path d="m30.038-15.582 3.9841-1.5468q0.39841-0.16405 0.60934-0.37498 0.23436-0.23436 0.23436-0.74995v-24.889h-6.8433q-0.39841 0-0.65621 0.23436-0.23436 0.21092-0.35154 0.65621l-1.1718 5.0622h-3.5388v-10.218h33.232v10.218h-3.5623l-1.1718-5.0622q-0.11718-0.42185-0.39841-0.65621-0.2578-0.23436-0.5859-0.23436h-6.8433v24.889q0 0.51559 0.2578 0.77339 0.2578 0.23436 0.5859 0.35154l3.9841 1.5468v2.1796h-17.765z"/>
  <path d="m63.388-35.174q-0.11718-0.37498-0.39841-0.65621-0.28123-0.30467-0.70308-0.49216l-1.9686-0.93744v-2.1092h14.108v2.1092l-3.5388 1.2655 3.9373 11.226 0.93744 3.8904h0.51559l4.3357-13.194 2.1796-5.2965h4.4997l5.32 14.46 1.0781 4.031h0.51559l4.5935-14.249-3.281-2.1327v-2.1092h10.734v2.1092l-2.0858 1.6405q-0.3281 0.2578-0.67964 0.56246-0.35154 0.28123-0.46872 0.63277l-5.4606 15.96-2.5077 5.2965h-5.4606l-4.9919-13.03-0.82026-3.6795h-0.42185l-3.7498 11.413-2.4608 5.2965h-5.6012z"/>
  <path d="m120.62-42.275q-0.86714 0-1.7577-0.3281-0.86713-0.3281-1.5936-0.89057-0.70308-0.56246-1.1484-1.3124-0.44529-0.77339-0.44529-1.664 0-0.93744 0.39841-1.664 0.42185-0.72652 1.1015-1.1952 0.67964-0.49216 1.5702-0.72652 0.89057-0.2578 1.8749-0.2578 1.1484 0 2.0858 0.23436 0.93744 0.21092 1.6171 0.65621 0.67965 0.42185 1.0546 1.1015 0.37498 0.65621 0.37498 1.5468 0 0.96088-0.44528 1.7811-0.42185 0.82026-1.1484 1.4296-0.70308 0.5859-1.6405 0.93744-0.91401 0.35154-1.8983 0.35154zm-8.1323 26.717 3.8201-1.3827q0.42184-0.16405 0.67964-0.37498 0.2578-0.23436 0.2578-0.70308v-15.562q0-0.46872-0.28124-0.70308-0.25779-0.23436-0.63277-0.37498l-3.7966-1.4999v-2.2264l12.421-0.46872v20.835q0 0.46872 0.28123 0.72652 0.28123 0.23436 0.60934 0.35154l3.8201 1.3827v2.1561h-17.179z"/>
  <path d="m136.63-15.558 2.9764-1.2655q0.39841-0.18749 0.63277-0.39841 0.2578-0.21092 0.2578-0.67965v-16.194q0-0.46872-0.28123-0.67964-0.2578-0.23436-0.60934-0.39841l-2.9295-1.2655v-2.2264l11.015-1.1718v4.0544h0.37498q1.1249-1.4296 2.2499-2.2733 1.1249-0.86713 2.2264-1.289 1.1015-0.44528 2.1561-0.56246 1.0781-0.14062 2.1092-0.14062 1.7811 0 3.3279 0.49216 1.5702 0.49216 2.7186 1.5468 1.1718 1.0546 1.8514 2.6951 0.67965 1.6405 0.67965 3.9138v13.382q0 0.56246 0.23436 0.79683 0.25779 0.21092 0.65621 0.39841l2.6248 1.2655v2.1561h-14.577v-2.1561l2.3436-1.2655q0.39841-0.21092 0.67964-0.42185 0.28124-0.21092 0.28124-0.77339v-10.312q0-1.6171-0.16406-2.8592-0.16405-1.2421-0.6562-2.0858-0.49216-0.8437-1.3827-1.289-0.86713-0.44528-2.2733-0.44528-0.63277 0-1.3124 0.07031-0.67964 0.07031-1.3358 0.28123-0.65621 0.21092-1.2656 0.63277-0.5859 0.39841-1.0312 1.0781v15.046q0 0.46872 0.25779 0.65621 0.2578 0.18749 0.65621 0.42185l2.1796 1.2655v2.1561h-14.671z"/>
  <path d="m187.83-12.769q-1.5468 0-3.0701-0.16405-1.5233-0.16405-2.9295-0.42185-1.3827-0.2578-2.6014-0.56246-1.1952-0.30467-2.1327-0.60934v-7.0777h3.9607l0.70308 2.1092q0.0703 0.18749 0.16405 0.37498 0.0937 0.16405 0.21093 0.3281 0.11718 0.16405 0.23436 0.30467 0.14061 0.11718 0.28123 0.21092 0.49216 0.35154 1.1015 0.70308 0.63278 0.35154 1.3827 0.63277 0.74995 0.2578 1.6171 0.42185 0.89057 0.16405 1.8749 0.16405 0.89057 0 1.664-0.23436 0.79683-0.23436 1.3593-0.65621 0.5859-0.44528 0.91401-1.0312 0.35154-0.60934 0.35154-1.3593 0-0.70308-0.23436-1.1952-0.23436-0.51559-0.72652-0.91401-0.46872-0.39841-1.1952-0.67964-0.72652-0.30467-1.7108-0.5859-1.1484-0.3281-2.5077-0.63277-1.3593-0.3281-2.4374-0.63277-1.6874-0.46872-2.9529-1.1952-1.2421-0.72652-2.0624-1.6405-0.82026-0.93744-1.2187-2.0155-0.39842-1.1015-0.39842-2.2967 0-1.9921 1.0078-3.5857 1.0078-1.6171 2.7186-2.742 1.7108-1.1249 3.9607-1.7343t4.7341-0.60934q1.4765 0 2.7654 0.09374t2.4139 0.2578q1.1484 0.14062 2.1327 0.37498 1.0078 0.21092 1.9218 0.46872v7.1714h-3.9373l-0.70308-2.2967q-0.11718-0.3281-0.39841-0.5859-0.28123-0.2578-0.53903-0.44528-0.39841-0.2578-0.96088-0.51559-0.53903-0.2578-1.1952-0.46872-0.63277-0.21092-1.3593-0.3281-0.72651-0.14062-1.453-0.14062-0.89057 0-1.5702 0.21092-0.65621 0.21092-1.1249 0.5859-0.44528 0.37498-0.67964 0.89057-0.23436 0.49216-0.23436 1.0546 0 0.67964 0.28123 1.2421 0.28123 0.53903 0.82026 0.98431t1.3359 0.82026q0.79682 0.35154 1.8514 0.63277 1.1952 0.3281 2.4842 0.65621 1.289 0.3281 2.3436 0.65621 1.5936 0.46872 2.7889 1.1484 1.2187 0.67964 2.0155 1.5702 0.79682 0.89057 1.1952 1.9921 0.39841 1.1015 0.39841 2.4139 0 2.3202-1.0781 4.0076-1.0546 1.664-2.8123 2.7655-1.7577 1.0781-4.0544 1.5937-2.2733 0.51559-4.7106 0.51559z"/>
  <path d="m248.06-15.558 3.4217-1.3827q0.39841-0.16405 0.65621-0.37498 0.25779-0.23436 0.25779-0.70308v-15.819h-4.8278v-4.1013h4.9216q0.30467-3.0936 1.453-5.4137 1.1718-2.3202 2.9061-3.8669 1.7577-1.5468 3.9607-2.3202 2.2264-0.77339 4.6403-0.77339 0.49216 0 1.1952 0.04687 0.70308 0.02344 1.453 0.09374 0.74996 0.07031 1.4765 0.16405 0.72651 0.09374 1.289 0.18749v6.3043h-1.7811q-0.5859-0.23436-1.4999-0.51559-0.89057-0.28123-1.8749-0.51559-0.96088-0.2578-1.8514-0.42185t-1.453-0.16405q-0.60934 0-1.0078 0.16405-0.37498 0.16405-0.63278 0.56246-0.3281 0.53903-0.49215 2.2264-0.16406 1.6874-0.18749 4.2419h7.3824v4.1013h-7.3589v15.819q0 0.46872 0.2578 0.72652 0.28123 0.23436 0.65621 0.35154l4.0076 1.3827v2.1561h-16.968z"/>
  <path d="m281.95-15.582 3.9841-1.5468q0.39842-0.16405 0.60934-0.37498 0.23436-0.23436 0.23436-0.74995v-24.889h-6.8433q-0.39842 0-0.65621 0.23436-0.23436 0.21092-0.35154 0.65621l-1.1718 5.0622h-3.5388v-10.218h33.232v10.218h-3.5623l-1.1718-5.0622q-0.11718-0.42185-0.39841-0.65621-0.2578-0.23436-0.5859-0.23436h-6.8433v24.889q0 0.51559 0.2578 0.77339 0.2578 0.23436 0.5859 0.35154l3.9841 1.5468v2.1796h-17.765z"/>
 </g>
 <g transform="matrix(.71233 0 0 .92932 159.26 18.739)" fill="" fill-rule="evenodd">
  <path d="m30.93 7.908a0.737 0.737 0 0 1-0.205-0.503 0.707 0.707 0 0 1 1.206-0.504c0.141 0.142 0.213 0.32 0.213 0.504a0.717 0.717 0 0 1-0.71 0.71 0.713 0.713 0 0 1-0.503-0.207m-2.008 2.008a0.74 0.74 0 0 1-0.206-0.504c0-0.184 0.071-0.361 0.206-0.503a0.715 0.715 0 0 1 1.007 0c0.135 0.142 0.206 0.32 0.206 0.503 0 0.178-0.07 0.362-0.206 0.504a0.725 0.725 0 0 1-0.503 0.206 0.725 0.725 0 0 1-0.504-0.206m-2.007 2a0.71 0.71 0 1 1 1.007 0 0.704 0.704 0 0 1-1.007 0m-2.008 2.008a0.713 0.713 0 0 1 0-1 0.716 0.716 0 0 1 1.007 0 0.71 0.71 0 0 1 0 1 0.696 0.696 0 0 1-0.503 0.206 0.708 0.708 0 0 1-0.504-0.206m-2 2.008a0.694 0.694 0 0 1 0-1 0.693 0.693 0 0 1 1 0 0.68 0.68 0 0 1 0.205 0.496 0.685 0.685 0 0 1-0.205 0.504 0.684 0.684 0 0 1-0.504 0.205 0.68 0.68 0 0 1-0.497-0.205m-2.22 1.504c0-0.178 0.072-0.363 0.213-0.504a0.706 0.706 0 0 1 1.206 0.504 0.696 0.696 0 0 1-0.206 0.503 0.713 0.713 0 0 1-1.213-0.503zm-1.794 2.51a0.697 0.697 0 0 1-0.206-0.503 0.7055 0.7055 0 1 1 1.411 0 0.697 0.697 0 0 1-0.205 0.504 0.71 0.71 0 0 1-1 0m-2.008 2a0.71 0.71 0 0 1 0-1 0.707 0.707 0 0 1 1 0c0.142 0.141 0.213 0.318 0.213 0.503a0.687 0.687 0 0 1-0.213 0.497 0.685 0.685 0 0 1-0.496 0.212 0.7 0.7 0 0 1-0.504-0.212m-2.007 2.007a0.709 0.709 0 1 1 1.007 0 0.703 0.703 0 0 1-1.007 0m-2.008 2.007a0.707 0.707 0 0 1 0-1 0.715 0.715 0 0 1 1.008 0 0.71 0.71 0 0 1 0 1 0.695 0.695 0 0 1-0.504 0.207 0.695 0.695 0 0 1-0.504-0.207m-2 2.008a0.692 0.692 0 0 1-0.213-0.504c0-0.177 0.071-0.36 0.213-0.503a0.72 0.72 0 0 1 1 0 0.739 0.739 0 0 1 0.206 0.503 0.713 0.713 0 0 1-0.206 0.504 0.697 0.697 0 0 1-0.504 0.206 0.681 0.681 0 0 1-0.496-0.206m-2.008 2.008a0.693 0.693 0 0 1-0.212-0.504c0-0.177 0.07-0.362 0.212-0.504a0.72 0.72 0 0 1 1 0 0.708 0.708 0 0 1 0.207 0.504 0.686 0.686 0 0 1-0.206 0.504 0.714 0.714 0 0 1-1 0m-2.008 2.007a0.696 0.696 0 0 1-0.206-0.503 0.706 0.706 0 0 1 1.206-0.504 0.704 0.704 0 0 1 0 1.007 0.712 0.712 0 0 1-1 0"/>
  <path d="m7.862 7.908a0.737 0.737 0 0 0 0.206-0.503 0.707 0.707 0 0 0-1.206-0.504 0.706 0.706 0 0 0-0.213 0.504 0.717 0.717 0 0 0 0.71 0.71c0.184 0 0.369-0.071 0.503-0.207m2.008 2.008a0.74 0.74 0 0 0 0.205-0.504 0.727 0.727 0 0 0-0.205-0.503 0.715 0.715 0 0 0-1.007 0 0.726 0.726 0 0 0-0.206 0.503c0 0.178 0.07 0.362 0.206 0.504 0.142 0.135 0.319 0.206 0.503 0.206s0.362-0.07 0.504-0.206m2.007 2a0.71 0.71 0 1 0-1.007 0 0.704 0.704 0 0 0 1.007 0m2.008 2.008a0.713 0.713 0 0 0 0-1 0.716 0.716 0 0 0-1.007 0 0.71 0.71 0 0 0 0 1c0.142 0.142 0.319 0.206 0.503 0.206a0.708 0.708 0 0 0 0.504-0.206m2 2.008a0.694 0.694 0 0 0 0-1 0.693 0.693 0 0 0-1 0 0.68 0.68 0 0 0-0.206 0.496c0 0.184 0.064 0.369 0.206 0.504 0.135 0.142 0.32 0.205 0.504 0.205a0.68 0.68 0 0 0 0.496-0.205m2.22 1.504a0.718 0.718 0 0 0-0.212-0.504 0.706 0.706 0 0 0-1.206 0.504c0 0.184 0.064 0.361 0.206 0.503a0.713 0.713 0 0 0 1.213-0.503zm1.795 2.51a0.697 0.697 0 0 0 0.206-0.503 0.7055 0.7055 0 1 0-1.411 0c0 0.184 0.063 0.362 0.205 0.504a0.71 0.71 0 0 0 1 0m2.007 2a0.71 0.71 0 0 0 0-1 0.707 0.707 0 0 0-1 0 0.704 0.704 0 0 0-0.213 0.503c0 0.177 0.072 0.362 0.214 0.497a0.685 0.685 0 0 0 0.496 0.212 0.7 0.7 0 0 0 0.503-0.212m2.008 2.007a0.709 0.709 0 1 0-1.008 0 0.703 0.703 0 0 0 1.007 0m2.008 2.007a0.707 0.707 0 0 0 0-1 0.715 0.715 0 0 0-1.007 0 0.71 0.71 0 0 0 0 1c0.142 0.143 0.32 0.207 0.504 0.207a0.695 0.695 0 0 0 0.503-0.207m2 2.008a0.692 0.692 0 0 0 0.213-0.504 0.716 0.716 0 0 0-0.212-0.503 0.72 0.72 0 0 0-1 0 0.739 0.739 0 0 0-0.206 0.503c0 0.185 0.07 0.37 0.206 0.504 0.142 0.142 0.32 0.206 0.503 0.206a0.681 0.681 0 0 0 0.497-0.206m2.007 2.008a0.693 0.693 0 0 0 0.213-0.504 0.716 0.716 0 0 0-0.213-0.504 0.72 0.72 0 0 0-1 0 0.708 0.708 0 0 0-0.206 0.504c0 0.184 0.064 0.369 0.206 0.504a0.714 0.714 0 0 0 1 0m2.008 2.007a0.696 0.696 0 0 0 0.206-0.503 0.706 0.706 0 0 0-1.206-0.504 0.704 0.704 0 0 0 0 1.007 0.712 0.712 0 0 0 1 0m-19.304-23.532-4.308-4.309c3.329-2.563 7.008-3.848 11.037-3.852 4.008-4e-3 7.69 1.284 11.045 3.86l-4.316 4.315c-2.06-1.34-4.304-2.01-6.733-2.005-2.46 5e-3 -4.7 0.671-6.725 1.99zm-4.247 17.718-4.305 4.305c-2.542-3.333-3.815-7.012-3.81-11.04 3e-3 -4.065 1.27-7.745 3.798-11.04l4.303 4.305c-1.35 2.042-2.03 4.286-2.035 6.733-4e-3 2.415 0.681 4.66 2.05 6.739zm17.74 4.282 4.291 4.291c-3.288 2.534-6.951 3.817-10.989 3.849-4.077 0.032-7.782-1.25-11.115-3.84l4.285-4.286c2.064 1.403 4.332 2.1 6.805 2.083 2.435-0.017 4.675-0.718 6.723-2.097zm4.243-17.756 4.31-4.311c2.592 3.332 3.873 7.037 3.841 11.115-0.032 4.021-1.317 7.682-3.854 10.984l-4.306-4.306c1.329-2.02 2.01-4.227 2.04-6.625 0.029-2.486-0.65-4.771-2.031-6.857zm4.473 19.14a2.9945 2.9945 0 1 1 0 5.989 2.9945 2.9945 0 0 1 0-5.989m-30.857 6e-3a2.9945 2.9945 0 1 1 0 5.989 2.9945 2.9945 0 0 1 0-5.989m30.885-30.885a2.994 2.994 0 1 1 0 5.988 2.994 2.994 0 0 1 0-5.988m-30.961-0.053a2.994 2.994 0 1 1 0 5.988 2.994 2.994 0 0 1 0-5.988"/>
 </g>
 <path d="m126.51 182.44c-2.5426-0.1965-5.1584-0.57802-5.813-0.84783-0.65456-0.2698-1.9258-0.63542-2.825-0.81248-0.89919-0.17696-2.4523-0.63978-3.4514-1.0283-0.99911-0.38845-2.7158-1.0471-3.8148-1.4636-1.099-0.41657-2.4322-1.0551-2.9626-1.4191-0.5304-0.36404-1.212-0.66177-1.5146-0.66177-0.30262 0-1.0132-0.29922-1.5789-0.66504-0.56569-0.36576-1.6008-0.98231-2.3001-1.3701-2.4321-1.3485-10.093-6.5958-12.42-8.5072-0.53684-0.44091-2.5805-2.0844-4.5414-3.6522-4.7256-3.7782-10.779-9.8713-14.918-15.016-6.8584-8.5243-14.901-21.696-19.746-32.336-0.84613-1.8585-1.6644-3.4921-1.8185-3.6302-0.1541-0.13812-0.45625-0.78983-0.67149-1.4482-0.21524-0.65833-0.71355-1.8486-1.1073-2.6451-0.39372-0.7965-0.8828-1.8826-1.0869-2.4136-0.20411-0.53099-0.93546-2.2688-1.6253-3.8618-1.6693-3.8546-5.2806-13.558-5.2806-14.188 0-0.71152-1.2383-1.5-2.3557-1.5-3.1834 0-6.7271-5.346-6.7271-10.149 0-1.6678-0.22367-2.287-1.3624-3.7728-2.482-3.2384-4.5172-6.5381-6.5003-10.539-2.1234-4.284-5.9431-14.118-5.9431-15.301 0-0.40173-0.14836-0.85229-0.32969-1.0012-0.18133-0.1489-0.6141-1.4721-0.96169-2.9404-0.61157-2.5834-0.60972-2.692 0.0572-3.3628 0.93521-0.94058 2.3241-0.92463 2.3241 0.02641 0 0.41279 0.29816 1.6619 0.66234 2.7757 0.36426 1.1138 0.96979 3.0026 1.3455 4.1973 1.2495 3.9729 4.2122 11.241 5.8905 14.451 2.3378 4.4709 5.1572 8.72 5.7862 8.72 0.68692 0 0.45754-1.0295-1.3446-6.034-1.3497-3.7482-1.808-5.2942-3.2192-10.861-0.98134-3.8712-1.9739-9.9194-2.0072-12.232-0.02691-1.8642 0.04658-2.0202 1.0144-2.1672 1.4623-0.22206 1.8032 0.43335 2.2895 4.4022 0.59137 4.826 1.6274 9.7788 2.8483 13.617 0.25333 0.79649 0.80128 2.5615 1.2176 3.9222 0.41634 1.3607 1.1307 3.4244 1.5875 4.5859 0.80119 2.0371 0.90114 2.1203 2.825 2.3532 1.2191 0.14754 2.4182 0.64406 3.0844 1.2773 2.9773 2.8298 4.0463 6.0724 3.6446 11.056l-0.23868 2.9612 2.4751 2.8795c2.6622 3.0971 10.409 11.021 13.374 13.679 6.2535 5.6067 8.719 7.7304 8.9744 7.7304 0.70623 0 0.16963 2.3024-0.84365 3.6204-0.61239 0.79649-1.6411 2.6429-2.286 4.1031-2.9737 6.7331-2.6117 12.806 1.0536 17.676 1.8148 2.4113 5.2106 5.0117 6.5447 5.0117 0.3257 0 0.90411 0.22185 1.2854 0.49302 0.65371 0.46482 3.1227 0.99814 8.8137 1.9037 1.3863 0.22064 2.7539 0.73419 3.1167 1.1704 0.35557 0.42757 0.77102 0.77737 0.92322 0.77737 0.31266 0 8.9235 8.6781 10.504 10.586 0.56547 0.6826 2.1138 2.5988 3.4409 4.2582 2.3237 2.9057 3.7055 3.774 3.7055 2.3285 0-1.129-6.1151-8.6928-10.899-13.481-1.4987-1.5-2.8883-2.896-3.0881-3.102-0.19976-0.20608-1.5107-1.3836-2.9131-2.6166-2.4817-2.1821-2.6466-2.2511-6.1763-2.5838-6.3346-0.59717-11.003-2.635-13.754-6.004-2.0669-2.5313-2.7704-4.5508-2.7704-7.9524 0-4.8233 2.7137-10.593 7.5426-16.037 2.7435-3.093 3.72-3.3238 3.72-0.87947 0 1.7637 1.3749 6.5214 1.8846 6.5214 0.88441 0 0.04037 2.1976-1.7938 4.6679-1.149 1.5479-2.3181 3.4045-2.5982 4.1259-0.47059 1.2123-0.44378 1.382 0.35396 2.2402 1.4752 1.5872 9.9938 3.4282 11.621 2.5115 0.48788-0.27488 1.8679-1.2496 3.0669-2.1661 1.1989-0.91644 2.9156-2.1964 3.8147-2.8444s2.2071-1.6368 2.9065-2.1975c0.69937-0.56062 1.5168-1.164 1.8165-1.3408 0.29971-0.17681 1.6261-1.1633 2.9474-2.1921 1.961-1.5268 2.5179-2.2446 3.0308-3.9064 0.34558-1.1198 0.83712-2.6876 1.0923-3.4841 0.85095-2.6557 1.6489-6.8226 1.6489-8.6108 0-1.7251-0.0331-1.7678-1.3806-1.7678-0.75933 0-1.5648 0.24476-1.79 0.54391-0.69504 0.92349-2.2791 0.0861-2.2791-1.2048 0-0.61886-0.53136-2.0586-1.1808-3.1994-2.2662-3.981-2.2239-3.8772-1.8068-4.4314 1.4021-1.8629 8.4657-3.3743 11.181-2.3923 1.7092 0.61822 3.7024 2.9424 4.6398 5.4104 0.54972 1.4473 0.63143 2.6165 0.50605 7.2408-0.14406 5.3127-0.33538 6.5416-2.037 13.087-0.65485 2.5189-0.67407 3.0355-0.23335 6.2754 0.71472 5.2547 2.218 11.935 2.8834 12.814 0.15451 0.20407 0.49652 1.055 0.76003 1.891 0.655 2.0784 5.2729 8.447 7.6363 10.531 1.8868 1.664 3.8845 2.2346 4.3465 1.2415 0.11895-0.25569 0.74166-0.67683 1.3839-0.93594 0.64219-0.25911 1.9033-0.84042 2.8025-1.2918 8.5811-4.3078 21.235-6.8613 31.311-6.3181 4.9149 0.26497 6.1101 0.0911 6.1101-0.8891 0-0.81662-0.9191-1.0688-5.3676-1.4727-6.0189-0.54649-15.285 0.55812-22.426 2.6734-0.9991 0.29594-2.5522 0.75394-3.4514 1.0177-0.8992 0.26375-1.9139 0.68396-2.2548 0.9337-0.34098 0.24983-1.2847 0.59538-2.0971 0.76799-0.81243 0.17259-1.5649 0.50251-1.6722 0.73315-0.27119 0.5829-1.9687 0.52821-1.9687-0.0635 0-0.26546 0.34206-0.48274 0.76014-0.48274 0.4181 0 1.1758-0.43442 1.6839-0.96543 0.50812-0.531 1.196-0.96545 1.5287-0.96545s0.76027-0.20201 0.95011-0.44891c0.35541-0.46226 2.7804-1.7189 4.7049-2.438 0.59945-0.22406 1.5804-0.62978 2.1799-0.90175 6.6365-3.0108 16.322-4.9018 25.101-4.9009 4.1358 4.4e-4 6.3678 0.21093 7.6295 0.71946 0.98091 0.39537 2.2173 0.72121 2.7475 0.72409 0.87816 5e-3 7.7815-4.4219 13.205-8.4675 1.1989-0.8943 2.4251-1.7829 2.7248-1.9747 0.29971-0.1918 2.8822-2.2098 5.7389-4.4844 2.8567-2.2746 5.5542-4.4033 5.9946-4.7304 0.44036-0.32706 2.6808-2.2993 4.9787-4.3828l4.1781-3.7881 0.23407-3.4425c0.26049-3.8316 1.025-5.8971 3.0624-8.2739 1.1546-1.3469 1.6668-1.5644 3.9698-1.6852 1.5583-0.0817 2.3518-1.499 4.3458-7.7617 0.2536-0.7965 0.70289-2.2085 0.99842-3.1377 1.3752-4.3239 2.3243-8.8108 2.9627-14.006 0.52725-4.2906 0.7296-4.8199 1.8427-4.8199 1.2536 0 1.7793 1.1359 1.5056 3.2531-1.1485 8.8817-2.7177 15.321-5.834 23.939-2.7984 7.739 0.44232 4.9331 5.2004-4.5026 1.7189-3.4088 4.3636-10.027 5.8835-14.724 1.0116-3.1259 1.7277-5.4204 1.9368-6.2059 0.18651-0.70038 0.45583-0.82465 1.2343-0.56925 0.54762 0.17973 1.1461 0.52207 1.33 0.76079 0.33677 0.43735-0.21307 3.379-1.079 5.773-0.24008 0.66376-0.79814 2.2929-1.2401 3.6204-1.4293 4.2929-3.3526 9.1083-4.7238 11.827-3.0575 6.0617-3.6905 7.144-5.9758 10.218-2.1365 2.874-2.3928 3.4231-2.3928 5.1279 0 5.5965-4.3684 11.055-7.9996 9.995-1.2496-0.36468-2.0718 0.63193-3.9843 4.8292-0.68703 1.5078-5.167 9.7573-6.8158 12.551-7.4489 12.62-17.057 25.612-24.812 33.549-2.188 2.2396-9.3612 8.814-10.172 9.3235-0.29206 0.18337-1.512 1.0918-2.7109 2.0187-5.7805 4.4689-10.447 7.0271-19.273 10.566-5.8201 2.3338-14.96 3.3558-23.86 2.6679zm16.975-4.0601c5.3938-1.3187 11.354-3.5732 15.259-5.7719 3.4133-1.9219 8.7593-5.5239 11.737-7.908 1.8775-1.5033 3.6898-2.9506 4.0273-3.216 3.2834-2.5827 8.9406-8.9304 7.9588-8.9304-0.32569 0-0.64662 0.16296-0.71323 0.36203-0.18129 0.54193-11.825 8.4681-15.38 10.47-0.59946 0.33748-1.7086 0.97095-2.4647 1.4076-0.7561 0.43677-1.5736 0.79536-1.8166 0.79699-0.24304 1e-3 -0.8983 0.31935-1.4562 0.70602-0.55797 0.38666-1.5816 0.84442-2.2747 1.0172-0.69313 0.17274-1.341 0.48789-1.4398 0.70017-0.0988 0.21228-0.87352 0.53806-1.7217 0.72393-0.84819 0.18587-1.7057 0.51136-1.9055 0.72334-0.19981 0.21192-1.1808 0.61066-2.1798 0.88603-0.99911 0.27538-2.634 0.74243-3.6331 1.0379-5.567 1.6466-6.8263 1.926-8.6806 1.926-1.879 0-2.5544-0.48368-1.679-1.2025 0.1969-0.16168 1.3005-0.50944 2.4523-0.77277 4.5596-1.0423 7.6424-1.8511 9.7238-2.5512 1.1989-0.40323 3.1067-1.0467 4.2395-1.4298 1.1328-0.38315 2.2556-0.85757 2.4952-1.0543 0.23957-0.19672 0.94761-0.52742 1.5734-0.73498 0.62586-0.2075 2.0371-0.84684 3.1361-1.4207 1.099-0.57381 2.4069-1.214 2.9065-1.4227 1.4726-0.61514 11.413-6.895 13.806-8.7217 7.063-5.3922 9.6932-7.6672 14.532-12.57 2.8777-2.9154 6.5396-7.7465 6.5396-8.6278 0-0.7818-0.71823-0.63136-0.95855 0.20079-0.11497 0.3983-0.36168 0.72409-0.54825 0.72409-0.31032 0-2.4253 1.8092-2.8529 2.4404-0.47669 0.70373-9.934 8.7593-12.353 10.522-0.8992 0.65527-2.2889 1.6834-3.0882 2.2849-1.702 1.2807-6.4142 4.4015-9.2644 6.1357-4.3166 2.6264-5.4285 3.2361-5.902 3.2361-0.27072 0-0.64755 0.19701-0.83738 0.43784-0.18987 0.24084-0.91736 0.65769-1.6167 0.92648-1.5882 0.61029-3.416 1.4559-5.1576 2.3861-1.2885 0.68825-2.4719 0.57019-2.4719-0.24646 0-0.57497 2.028-1.8151 4.9047-2.9992 1.3988-0.57575 2.8702-1.2398 3.2698-1.4758 0.39967-0.23598 2.2798-1.2945 4.1781-2.3524 3.6224-2.0187 11.458-7.1722 14.953-9.8342 3.4673-2.6413 7.3813-5.813 7.5726-6.1366 0.0999-0.16895 0.8356-0.82841 1.6349-1.4656 5.8373-4.6533 17.984-18.184 17.984-20.034 0-0.39623 0.16347-0.72047 0.36329-0.72047 0.19986 0 0.36333-0.20437 0.36333-0.45405 0-0.60138-1.3265 0.34012-3.1034 2.2028-1.5885 1.6651-11.291 10.407-12.156 10.952-0.29977 0.18894-1.0354 0.77234-1.6349 1.2965-0.59946 0.52414-1.4169 1.1761-1.8165 1.4488-0.39967 0.27274-1.2988 0.96222-1.9982 1.5322-2.4346 1.984-12.524 8.6818-15.969 10.601-1.9076 1.0627-3.9588 2.2108-4.5583 2.5512-2.8152 1.599-3.5041 1.8524-3.8363 1.411-0.56855-0.7554 0.40308-1.8203 2.7464-3.0099 1.1989-0.60866 2.6703-1.3938 3.2698-1.7449 0.59946-0.35104 2.15-1.2539 3.4457-2.0064 2.8014-1.627 12.006-7.7966 13.811-9.2576 0.69938-0.5659 1.5986-1.2521 1.9982-1.5248 0.39968-0.27274 1.2171-0.92389 1.8165-1.447 0.59947-0.52314 1.4169-1.1739 1.8166-1.4461 0.39967-0.27224 1.6556-1.3073 2.7909-2.3001 9.964-8.7127 18.826-18.084 18.826-19.909 0-1.0004-1.1101-0.40087-3.8015 2.053-3.2345 2.949-3.5258 3.1988-7.4611 6.3961-1.6339 1.3275-3.4058 2.7833-3.9377 3.2352-1.3104 1.1133-2.2543 1.8455-4.3112 3.3442-0.95819 0.69816-2.3144 1.7152-3.0138 2.26-1.4215 1.1074-16.346 11.017-18.892 12.544-2.0119 1.2066-4.3824 2.5456-6.5396 3.6938-0.89919 0.47867-2.1254 1.1487-2.7248 1.4891-0.59945 0.34041-1.8256 0.98662-2.7248 1.4361-0.8992 0.44947-2.1718 1.1212-2.828 1.4926-0.65621 0.37146-1.3672 0.67532-1.58 0.67532-0.21281 0-0.90208 0.2901-1.5317 0.64463-1.5659 0.88179-3.4394 1.7556-4.9596 2.3134-0.69937 0.25661-1.5986 0.65435-1.9982 0.8839-1.164 0.66869-7.1175 2.9733-11.808 4.5708-1.2988 0.44242-3.1192 1.12-4.0452 1.5058-0.92601 0.38574-2.0108 0.70138-2.4106 0.70138s-1.5223 0.30443-2.4944 0.67654c-5.5043 2.107-18.23 4.7287-29.561 6.0901-6.709 0.8061-7.0181 1.0528-3.9056 3.1176 1.0491 0.69588 2.6431 1.786 3.5423 2.4225 2.535 1.7944 6.2619 4.152 7.2662 4.5968 0.49958 0.22121 1.8075 0.86705 2.9065 1.4352 4.9571 2.5626 12.063 4.8548 17.984 5.8013 3.8454 0.61465 14.406 0.19195 18.165-0.72722zm77.666-76.547c0.74491-0.81583 1.3544-1.7933 1.3544-2.1723 0-0.88835-0.0704-0.8763-1.7744 0.3038-1.427 0.98825-2.0459 2.0762-1.6568 2.9126 0.32274 0.69375 0.63193 0.53828 2.0768-1.0442zm-2.929-6.0287c0.22196-0.64734 0.54084-1.177 0.70862-1.177 0.16777 0 0.30499-0.43442 0.30499-0.96544 0-1.8473-1.4902-0.95563-2.687 1.6078-0.8254 1.7679-0.54039 2.9989 0.51979 2.245 0.41252-0.29338 0.93165-1.063 1.1536-1.7104zm-181.37-15.825c0-0.82343-2.2929-3.2125-3.0832-3.2125-0.49357 0-0.08655 1.2927 0.78966 2.5079 1.0245 1.4209 2.2935 1.8107 2.2935 0.70466zm3.2698-4.65c0-2.1639-2.5731-5.9567-3.3451-4.9308-0.25799 0.34284 0.10699 1.4118 1.1689 3.4231 1.5079 2.8562 2.1762 3.3192 2.1762 1.5077zm82.74 65.321c-2.3622-2.2331-1.7429-2.5322 2.275-1.0989 2.8124 1.0033 2.8095 1.0003 1.6349 1.6948-1.6093 0.95158-2.4006 0.831-3.9099-0.59589zm-43.926-18.757c-3.3692-0.65256-3.9356-0.91869-3.9356-1.849 0-0.72969 3.3241-5.1426 3.8737-5.1426 1.1397 0 7.1804 4.4692 7.3173 5.4137 0.13567 0.93612-1.8319 2.335-3.1632 2.2489-0.51884-0.0336-2.3603-0.33549-4.0922-0.6709zm5.5104-5.5334c-0.29977-0.2287-1.2745-0.8882-2.1661-1.4654-5.8866-3.8108-7.8684-14.434-4.1134-22.049 2.0088-4.0741 6.0557-6.9163 9.827-6.9018 1.4877 5e-3 4.0513 0.94305 5.6479 2.0651 1.3588 0.95484 4.6103 5.618 4.6103 6.6118 0 0.43327 0.24003 1.2094 0.53339 1.7248 0.60646 1.0653 0.79228 9.1341 0.22114 9.6031-0.18444 0.15147-0.44605 0.94487-0.58129 1.7631-0.38253 2.3145-4.3024 7.2448-6.58 8.2763-1.9584 0.88693-6.4299 1.1118-7.3991 0.37203z" stroke-width=".41878"/>
 <path d="m94.551 135.71c0.09325 0.0263 0.16516 0.0955 0.2156 0.17607 0.06 0.0524 0.05789 0.12141 0.06622 0.195-0.0019 0.0266-7.93e-4 0.0535-0.0052 0.0797-0.0061 0.0369-0.03442 0.12253-0.04624 0.15805-0.02061 0.0619-0.04229 0.12312-0.06099 0.18565-0.04243 0.15006 0.01842 0.24305 0.12009 0.3521 0.01781 0.0193 0.03773 0.0368 0.05338 0.0579 0.01498 0.0202 0.02453 0.0439 0.03795 0.0652 0.0546 0.0864 0.11303 0.17291 0.15346 0.26751 0.01516 0.0355 0.02487 0.0731 0.03731 0.10965 0.05911 0.13184 0.12897 0.25973 0.2021 0.38433 0.08354 0.14234 0.13514 0.20699 0.21132 0.35664 0.03148 0.0618 0.05677 0.12665 0.08515 0.18998 0.09761 0.21651 0.05682 0.13975 0.17345 0.34437 0.06958 0.12208 0.09279 0.16831 0.17994 0.27762 0.06047 0.0759 0.12769 0.14607 0.19033 0.22013 0.02564 0.0272 0.05125 0.0545 0.07688 0.0817l3.1794-2.007c-0.0323-0.017-0.0645-0.034-0.0968-0.051-0.0351-0.0191-0.072-0.0352-0.10532-0.0574-0.0697-0.0463-0.14332-0.11733-0.20121-0.17636-0.11687-0.11915-0.22216-0.24825-0.30613-0.39304-0.0321-0.0567-0.0692-0.1109-0.0963-0.17022-0.0641-0.14081-0.0795-0.23561-0.11519-0.38385-0.0352-0.14631-0.067-0.29339-0.10561-0.43888-0.01553-0.0354-0.03353-0.0699-0.04657-0.10628-0.01463-0.0408-0.02336-0.0836-0.03624-0.12497-0.0105-0.0338-0.02387-0.0667-0.03386-0.10069-0.01095-0.0372-0.01664-0.076-0.029-0.11274-0.0096-0.0286-0.02635-0.0544-0.03672-0.0828-0.0094-0.0258-0.01506-0.0528-0.02257-0.0792-0.0027-0.017-0.01135-0.034-0.0081-0.0509 0.0011-6e-3 0.01122 6e-3 0.01699 5e-3 0.0045-1e-3 6e-3 -7e-3 0.0085-0.011 0.01458-0.0229 0.01193-0.051 0.01207-0.0769-0.0013-0.1462-0.0052-0.29281 0.0093-0.43854 0.0031-0.0359 9e-3 -0.0717 0.0092-0.10775 7.94e-4 -0.1412-0.04547-0.2565-0.12393-0.37125-0.04072-0.0421-0.08354-0.0812-0.1258-0.12174-0.02439-0.0234-0.05762-0.0541-0.07554-0.0836-0.0084-0.0138-0.01257-0.0297-0.01887-0.0445l-3.3424 2.0837z" fill-opacity="0" stroke-width=".26458"/>
 <path d="m99.837 137.92c-0.0323-0.0152-0.0679-0.0247-0.0969-0.0456-0.18301-0.13158-0.24415-0.29453-0.35247-0.48279-0.13807-0.23998-0.1306-0.21847-0.29652-0.46246-0.0437-0.0896-0.0928-0.17665-0.13103-0.26867-0.035-0.0844-0.0583-0.17315-0.0883-0.2594-0.0875-0.25097-0.0772-0.22136-0.17699-0.46207-0.0287-0.0693-0.0529-0.14078-0.0871-0.20759-0.0377-0.0738-0.0853-0.14205-0.12796-0.21307-0.0432-0.0747-0.09018-0.14724-0.12961-0.22395-0.03613-0.0703-0.06182-0.1456-0.09675-0.2165-0.03368-0.0684-0.0739-0.13333-0.10896-0.20099-0.08364-0.16141-0.16009-0.32629-0.23136-0.49343l-3.1564 1.8391c0.11898 0.13625 0.24311 0.27168 0.3512 0.41687 0.0432 0.058 0.08141 0.11961 0.12245 0.17918 0.18178 0.26391 0.09347 0.1132 0.24149 0.4103 0.02981 0.0758 0.05574 0.15326 0.08943 0.22743 0.0569 0.12527 0.15371 0.28518 0.22271 0.40362 0.04186 0.0719 0.08347 0.14387 0.12573 0.2155 0.19728 0.33433 0.09407 0.13533 0.26391 0.50389 0.04642 0.16589 0.10131 0.36683 0.15259 0.53319 0.0388 0.12588 0.10129 0.28551 0.1177 0.4185 0.01558 0.12638-0.0021 0.21075-0.01839 0.33133l3.4115-1.9424z" fill-opacity="0" stroke-width=".26458"/>
</svg>
