<?xml version="1.0" encoding="UTF-8" standalone="no"?>
<!-- Created with Inkscape (http://www.inkscape.org/) -->

<svg
   width="64mm"
   height="64mm"
   viewBox="0 0 64 64"
   version="1.1"
   id="svg5"
   inkscape:version="1.1 (c68e22c387, 2021-05-23)"
   sodipodi:docname="twinsoft.svg"
   inkscape:export-filename="C:\elrond\twinsoft_test.png"
   inkscape:export-xdpi="101.6"
   inkscape:export-ydpi="101.6"
   shape-rendering="crispEdges"
   xmlns:inkscape="http://www.inkscape.org/namespaces/inkscape"
   xmlns:sodipodi="http://sodipodi.sourceforge.net/DTD/sodipodi-0.dtd"
   xmlns="http://www.w3.org/2000/svg"
   xmlns:svg="http://www.w3.org/2000/svg">
  <sodipodi:namedview
     id="namedview7"
     pagecolor="#ffffff"
     bordercolor="#666666"
     borderopacity="1.0"
     inkscape:pageshadow="2"
     inkscape:pageopacity="0.0"
     inkscape:pagecheckerboard="0"
     inkscape:document-units="mm"
     showgrid="false"
     inkscape:zoom="2.56"
     inkscape:cx="91.992188"
     inkscape:cy="113.86719"
     inkscape:window-width="1920"
     inkscape:window-height="1017"
     inkscape:window-x="-8"
     inkscape:window-y="-8"
     inkscape:window-maximized="1"
     inkscape:current-layer="layer1"
     width="48mm" />
  <defs
     id="defs2" />
  <g
     inkscape:label="Layer 1"
     inkscape:groupmode="layer"
     id="layer1">
    <text
       xml:space="preserve"
       style="font-style:normal;font-weight:normal;font-size:8.48212px;line-height:2.05;font-family:sans-serif;letter-spacing:0.63616px;fill:#000000;fill-opacity:1;stroke:none;stroke-width:0.208749"
       x="15.495978"
       y="21.153624"
       id="text1615"
       transform="scale(0.84944966,1.1772328)"
       inkscape:export-filename="C:\elrond\twinsoft_test.png"
       inkscape:export-xdpi="92.005333"
       inkscape:export-ydpi="92.005333"><tspan
         sodipodi:role="line"
         id="tspan1613"
         style="font-style:normal;font-variant:normal;font-weight:bold;font-stretch:normal;font-size:8.48212px;font-family:'Sitka Small';-inkscape-font-specification:'Sitka Small, Bold';font-variant-ligatures:normal;font-variant-caps:normal;font-variant-numeric:normal;font-variant-east-asian:normal;stroke-width:0.208749"
         x="15.495978"
         y="21.153624">Twins  fT</tspan></text>
    <g
       fill=""
       fill-rule="evenodd"
       id="g25278"
       transform="matrix(0.13761051,0,0,0.14941562,39.048375,19.434601)"
       inkscape:export-filename="C:\elrond\twinsoft_test.png"
       inkscape:export-xdpi="92.005333"
       inkscape:export-ydpi="92.005333">
      <path
         d="M 30.93,7.908 A 0.737,0.737 0 0 1 30.725,7.405 0.707,0.707 0 0 1 31.931,6.901 c 0.141,0.142 0.213,0.32 0.213,0.504 a 0.717,0.717 0 0 1 -0.71,0.71 0.713,0.713 0 0 1 -0.503,-0.207 M 28.923,9.916 A 0.74,0.74 0 0 1 28.717,9.412 c 0,-0.184 0.071,-0.361 0.206,-0.503 a 0.715,0.715 0 0 1 1.007,0 c 0.135,0.142 0.206,0.32 0.206,0.503 0,0.178 -0.07,0.362 -0.206,0.504 a 0.725,0.725 0 0 1 -0.503,0.206 0.725,0.725 0 0 1 -0.504,-0.206 m -2.007,2 a 0.71,0.71 0 1 1 1.007,0 0.704,0.704 0 0 1 -1.007,0 m -2.008,2.008 a 0.713,0.713 0 0 1 0,-1 0.716,0.716 0 0 1 1.007,0 0.71,0.71 0 0 1 0,1 0.696,0.696 0 0 1 -0.503,0.206 0.708,0.708 0 0 1 -0.504,-0.206 m -2,2.008 a 0.694,0.694 0 0 1 0,-1 0.693,0.693 0 0 1 1,0 0.68,0.68 0 0 1 0.205,0.496 0.685,0.685 0 0 1 -0.205,0.504 0.684,0.684 0 0 1 -0.504,0.205 0.68,0.68 0 0 1 -0.497,-0.205 m -2.22,1.504 c 0,-0.178 0.072,-0.363 0.213,-0.504 a 0.706,0.706 0 0 1 1.206,0.504 0.696,0.696 0 0 1 -0.206,0.503 0.713,0.713 0 0 1 -1.213,-0.503 z m -1.794,2.51 a 0.697,0.697 0 0 1 -0.206,-0.503 0.7055,0.7055 0 1 1 1.411,0 0.697,0.697 0 0 1 -0.205,0.504 0.71,0.71 0 0 1 -1,0 m -2.008,2 a 0.71,0.71 0 0 1 0,-1 0.707,0.707 0 0 1 1,0 c 0.142,0.141 0.213,0.318 0.213,0.503 a 0.687,0.687 0 0 1 -0.213,0.497 0.685,0.685 0 0 1 -0.496,0.212 0.7,0.7 0 0 1 -0.504,-0.212 m -2.007,2.007 a 0.709,0.709 0 1 1 1.007,0 0.703,0.703 0 0 1 -1.007,0 m -2.008,2.007 a 0.707,0.707 0 0 1 0,-1 0.715,0.715 0 0 1 1.008,0 0.71,0.71 0 0 1 0,1 0.695,0.695 0 0 1 -0.504,0.207 0.695,0.695 0 0 1 -0.504,-0.207 m -2,2.008 a 0.692,0.692 0 0 1 -0.213,-0.504 c 0,-0.177 0.071,-0.36 0.213,-0.503 a 0.72,0.72 0 0 1 1,0 0.739,0.739 0 0 1 0.206,0.503 0.713,0.713 0 0 1 -0.206,0.504 0.697,0.697 0 0 1 -0.504,0.206 0.681,0.681 0 0 1 -0.496,-0.206 M 8.862,29.977 A 0.693,0.693 0 0 1 8.65,29.473 c 0,-0.177 0.07,-0.362 0.212,-0.504 a 0.72,0.72 0 0 1 1,0 0.708,0.708 0 0 1 0.207,0.504 0.686,0.686 0 0 1 -0.206,0.504 0.714,0.714 0 0 1 -1,0 m -2.008,2.007 a 0.696,0.696 0 0 1 -0.206,-0.503 0.706,0.706 0 0 1 1.206,-0.504 0.704,0.704 0 0 1 0,1.007 0.712,0.712 0 0 1 -1,0"
         id="path25274" />
      <path
         d="M 7.862,7.908 A 0.737,0.737 0 0 0 8.068,7.405 0.707,0.707 0 0 0 6.862,6.901 0.706,0.706 0 0 0 6.649,7.405 a 0.717,0.717 0 0 0 0.71,0.71 c 0.184,0 0.369,-0.071 0.503,-0.207 M 9.87,9.916 A 0.74,0.74 0 0 0 10.075,9.412 0.727,0.727 0 0 0 9.87,8.909 a 0.715,0.715 0 0 0 -1.007,0 0.726,0.726 0 0 0 -0.206,0.503 c 0,0.178 0.07,0.362 0.206,0.504 0.142,0.135 0.319,0.206 0.503,0.206 0.184,0 0.362,-0.07 0.504,-0.206 m 2.007,2 a 0.71,0.71 0 1 0 -1.007,0 0.704,0.704 0 0 0 1.007,0 m 2.008,2.008 a 0.713,0.713 0 0 0 0,-1 0.716,0.716 0 0 0 -1.007,0 0.71,0.71 0 0 0 0,1 c 0.142,0.142 0.319,0.206 0.503,0.206 a 0.708,0.708 0 0 0 0.504,-0.206 m 2,2.008 a 0.694,0.694 0 0 0 0,-1 0.693,0.693 0 0 0 -1,0 0.68,0.68 0 0 0 -0.206,0.496 c 0,0.184 0.064,0.369 0.206,0.504 0.135,0.142 0.32,0.205 0.504,0.205 a 0.68,0.68 0 0 0 0.496,-0.205 m 2.22,1.504 a 0.718,0.718 0 0 0 -0.212,-0.504 0.706,0.706 0 0 0 -1.206,0.504 c 0,0.184 0.064,0.361 0.206,0.503 a 0.713,0.713 0 0 0 1.213,-0.503 z m 1.795,2.51 a 0.697,0.697 0 0 0 0.206,-0.503 0.7055,0.7055 0 1 0 -1.411,0 c 0,0.184 0.063,0.362 0.205,0.504 a 0.71,0.71 0 0 0 1,0 m 2.007,2 a 0.71,0.71 0 0 0 0,-1 0.707,0.707 0 0 0 -1,0 0.704,0.704 0 0 0 -0.213,0.503 c 0,0.177 0.072,0.362 0.214,0.497 a 0.685,0.685 0 0 0 0.496,0.212 0.7,0.7 0 0 0 0.503,-0.212 m 2.008,2.007 a 0.709,0.709 0 1 0 -1.008,0 0.703,0.703 0 0 0 1.007,0 m 2.008,2.007 a 0.707,0.707 0 0 0 0,-1 0.715,0.715 0 0 0 -1.007,0 0.71,0.71 0 0 0 0,1 c 0.142,0.143 0.32,0.207 0.504,0.207 a 0.695,0.695 0 0 0 0.503,-0.207 m 2,2.008 a 0.692,0.692 0 0 0 0.213,-0.504 0.716,0.716 0 0 0 -0.212,-0.503 0.72,0.72 0 0 0 -1,0 0.739,0.739 0 0 0 -0.206,0.503 c 0,0.185 0.07,0.37 0.206,0.504 0.142,0.142 0.32,0.206 0.503,0.206 a 0.681,0.681 0 0 0 0.497,-0.206 m 2.007,2.008 a 0.693,0.693 0 0 0 0.213,-0.504 0.716,0.716 0 0 0 -0.213,-0.504 0.72,0.72 0 0 0 -1,0 0.708,0.708 0 0 0 -0.206,0.504 c 0,0.184 0.064,0.369 0.206,0.504 a 0.714,0.714 0 0 0 1,0 m 2.008,2.007 a 0.696,0.696 0 0 0 0.206,-0.503 0.706,0.706 0 0 0 -1.206,-0.504 0.704,0.704 0 0 0 0,1.007 0.712,0.712 0 0 0 1,0 M 12.634,8.452 8.326,4.143 c 3.329,-2.563 7.008,-3.848 11.037,-3.852 4.008,-0.004 7.69,1.284 11.045,3.86 l -4.316,4.315 c -2.06,-1.34 -4.304,-2.01 -6.733,-2.005 -2.46,0.005 -4.7,0.671 -6.725,1.99 z M 8.387,26.17 4.082,30.475 C 1.54,27.142 0.267,23.463 0.272,19.435 0.275,15.37 1.542,11.69 4.07,8.395 L 8.373,12.7 c -1.35,2.042 -2.03,4.286 -2.035,6.733 -0.004,2.415 0.681,4.66 2.05,6.739 z m 17.74,4.282 4.291,4.291 c -3.288,2.534 -6.951,3.817 -10.989,3.849 -4.077,0.032 -7.782,-1.25 -11.115,-3.84 l 4.285,-4.286 c 2.064,1.403 4.332,2.1 6.805,2.083 2.435,-0.017 4.675,-0.718 6.723,-2.097 z M 30.37,12.696 34.68,8.385 c 2.592,3.332 3.873,7.037 3.841,11.115 -0.032,4.021 -1.317,7.682 -3.854,10.984 l -4.306,-4.306 c 1.329,-2.02 2.01,-4.227 2.04,-6.625 0.029,-2.486 -0.65,-4.771 -2.031,-6.857 z m 4.473,19.14 a 2.9945,2.9945 0 1 1 0,5.989 2.9945,2.9945 0 0 1 0,-5.989 M 3.986,31.842 a 2.9945,2.9945 0 1 1 0,5.989 2.9945,2.9945 0 0 1 0,-5.989 M 34.871,0.957 a 2.994,2.994 0 1 1 0,5.988 2.994,2.994 0 0 1 0,-5.988 M 3.91,0.904 a 2.994,2.994 0 1 1 0,5.988 2.994,2.994 0 0 1 0,-5.988"
         id="path25276" />
    </g>
    <path
       style="fill:#000000;stroke-width:0.0688946"
       d="m 32.61909,42.474693 c -0.49118,-0.02753 -0.996516,-0.08098 -1.122969,-0.118777 -0.126452,-0.0378 -0.372041,-0.08902 -0.545749,-0.113826 -0.173709,-0.02479 -0.473753,-0.08963 -0.666763,-0.144055 -0.193011,-0.05442 -0.524637,-0.146696 -0.736948,-0.205049 -0.212313,-0.05836 -0.469852,-0.147818 -0.572314,-0.198807 -0.102464,-0.051 -0.234132,-0.09271 -0.2926,-0.09271 -0.05846,0 -0.195723,-0.04192 -0.305007,-0.09317 -0.109283,-0.05124 -0.30924,-0.137617 -0.444346,-0.191942 -0.469844,-0.188916 -1.949822,-0.924038 -2.399408,-1.191816 -0.103708,-0.06177 -0.498503,-0.292017 -0.877319,-0.511662 -0.912903,-0.529313 -2.0823,-1.382922 -2.88201,-2.103736 -1.324923,-1.194217 -2.878677,-3.039448 -3.814545,-4.530135 -0.163459,-0.260366 -0.321544,-0.489226 -0.3513,-0.50858 -0.02977,-0.01935 -0.08814,-0.110652 -0.129721,-0.202882 -0.04158,-0.09223 -0.137847,-0.258988 -0.213904,-0.370573 -0.07606,-0.111585 -0.170543,-0.263746 -0.209966,-0.338136 -0.03943,-0.07439 -0.180716,-0.317847 -0.313985,-0.541017 -0.322473,-0.540008 -1.020132,-1.8994 -1.020132,-1.987737 0,-0.09968 -0.239211,-0.210146 -0.455078,-0.210146 -0.61498,0 -1.299562,-0.748956 -1.299562,-1.421762 0,-0.233645 -0.04321,-0.320393 -0.263196,-0.528554 -0.479487,-0.453685 -0.872646,-0.915954 -1.255754,-1.476491 -0.410197,-0.600175 -1.148102,-1.977875 -1.148102,-2.143559 0,-0.05628 -0.02866,-0.119402 -0.06369,-0.140264 -0.03503,-0.02086 -0.118635,-0.206232 -0.185783,-0.411935 -0.118146,-0.361925 -0.117789,-0.37714 0.01105,-0.471113 0.180668,-0.131771 0.448979,-0.129537 0.448979,0.0037 0,0.05783 0.0576,0.232819 0.127954,0.388857 0.07037,0.156037 0.187348,0.42065 0.259938,0.588027 0.241388,0.556589 0.81373,1.574821 1.137943,2.024476 0.451619,0.626355 0.996296,1.221628 1.117797,1.221628 0.132703,0 0.08839,-0.144227 -0.259763,-0.84534 -0.260748,-0.525105 -0.349268,-0.741691 -0.621893,-1.521611 -0.189578,-0.542338 -0.381317,-1.389667 -0.38776,-1.71358 -0.0052,-0.261164 0.009,-0.283019 0.195963,-0.303615 0.282501,-0.03111 0.348344,0.06071 0.442301,0.616728 0.114244,0.676107 0.314379,1.369971 0.550237,1.907671 0.04894,0.111585 0.154794,0.358853 0.235218,0.549485 0.08043,0.190633 0.218429,0.479739 0.306679,0.642458 0.154776,0.285387 0.174086,0.297051 0.545754,0.329668 0.235516,0.02067 0.467156,0.09023 0.595858,0.178943 0.575166,0.396441 0.781672,0.850714 0.704081,1.548838 l -0.04611,0.41485 0.478147,0.403402 c 0.514285,0.433888 2.010923,1.54398 2.583715,1.916401 1.208079,0.785473 1.684366,1.082993 1.733716,1.082993 0.136432,0 0.03277,0.322559 -0.162979,0.507204 -0.118303,0.111585 -0.317035,0.370259 -0.441622,0.574829 -0.574477,0.943277 -0.504547,1.794097 0.20353,2.476364 0.350591,0.337809 1.006613,0.702114 1.264339,0.702114 0.06292,0 0.174659,0.03108 0.248319,0.06907 0.126287,0.06512 0.603261,0.139835 1.702673,0.266702 0.267812,0.03091 0.532013,0.102856 0.602102,0.163974 0.06869,0.0599 0.148949,0.108906 0.178351,0.108906 0.0604,0 1.723884,1.215763 2.029119,1.482984 0.109239,0.09563 0.408362,0.364082 0.664717,0.596552 0.448901,0.407074 0.715839,0.528718 0.715839,0.32621 0,-0.158167 -1.181334,-1.217823 -2.105566,-1.888691 -0.289516,-0.210147 -0.557975,-0.405709 -0.596578,-0.434576 -0.03859,-0.02887 -0.291842,-0.193828 -0.562755,-0.366574 -0.479419,-0.305699 -0.511281,-0.315366 -1.193156,-0.361979 -1.223748,-0.08366 -2.125575,-0.369152 -2.656977,-0.841128 -0.399283,-0.354627 -0.535193,-0.637549 -0.535193,-1.114091 0,-0.675726 0.524239,-1.484056 1.457115,-2.24674 0.530008,-0.433314 0.718636,-0.465654 0.718636,-0.123209 0,0.247086 0.265615,0.913613 0.36408,0.913613 0.170853,0 0.0078,0.307878 -0.346532,0.653954 -0.221963,0.216847 -0.447828,0.476954 -0.501925,0.578018 -0.09091,0.169832 -0.08573,0.193606 0.06838,0.313842 0.284983,0.222353 1.930649,0.480278 2.244937,0.351849 0.09425,-0.03851 0.360857,-0.175066 0.592468,-0.303457 0.231614,-0.128389 0.563239,-0.307707 0.736948,-0.398485 0.173709,-0.09078 0.426379,-0.229314 0.561486,-0.307856 0.135107,-0.07854 0.293024,-0.163075 0.350927,-0.187847 0.0579,-0.02477 0.314132,-0.16297 0.569398,-0.307098 0.378833,-0.213896 0.486425,-0.314465 0.585498,-0.547274 0.06676,-0.156873 0.161717,-0.37652 0.211021,-0.488105 0.164389,-0.372052 0.318538,-0.955816 0.318538,-1.206326 0,-0.241676 -0.0064,-0.247657 -0.266706,-0.247657 -0.146689,0 -0.302294,0.03429 -0.345789,0.0762 -0.13427,0.129376 -0.440289,0.01206 -0.440289,-0.168782 0,-0.0867 -0.10265,-0.288399 -0.228103,-0.448224 -0.437788,-0.557714 -0.429615,-0.543181 -0.349045,-0.620816 0.270861,-0.260987 1.635435,-0.472719 2.159946,-0.335146 0.330192,0.08661 0.715233,0.412211 0.896332,0.757973 0.106197,0.202756 0.121981,0.366553 0.09776,1.014408 -0.02783,0.744285 -0.06479,0.916446 -0.393508,1.833418 -0.126507,0.352886 -0.13022,0.425254 -0.04508,0.879153 0.138072,0.736158 0.428487,1.672091 0.557033,1.795175 0.02985,0.02859 0.09592,0.147805 0.146826,0.26492 0.126535,0.291171 1.018635,1.183379 1.47521,1.475388 0.364493,0.233118 0.750427,0.31306 0.83967,0.173927 0.02298,-0.03582 0.143277,-0.09482 0.267339,-0.13112 0.124061,-0.0363 0.367692,-0.117739 0.541402,-0.180979 1.657733,-0.603511 4.102323,-0.961237 6.048735,-0.885131 0.949475,0.03712 1.180378,0.01276 1.180378,-0.12456 0,-0.114404 -0.177556,-0.149732 -1.036938,-0.206317 -1.162763,-0.07656 -2.952842,0.07819 -4.332258,0.374526 -0.19301,0.04146 -0.493054,0.105624 -0.666762,0.142576 -0.17371,0.03695 -0.369728,0.09582 -0.435595,0.130807 -0.06587,0.035 -0.248175,0.08341 -0.405124,0.107592 -0.156949,0.02418 -0.302318,0.0704 -0.323041,0.102712 -0.05239,0.08166 -0.380323,0.074 -0.380323,-0.0089 0,-0.03719 0.06608,-0.06763 0.146846,-0.06763 0.08077,0 0.227153,-0.06086 0.325301,-0.135253 0.09816,-0.07439 0.231044,-0.135255 0.295321,-0.135255 0.06428,0 0.146874,-0.0283 0.183546,-0.06289 0.06866,-0.06476 0.537131,-0.240813 0.908903,-0.341559 0.115806,-0.03139 0.305308,-0.08823 0.421114,-0.126332 1.282065,-0.421799 3.153095,-0.686715 4.849196,-0.68659 0.798979,6.1e-5 1.23015,0.02955 1.473896,0.100793 0.189495,0.05539 0.428341,0.101038 0.530767,0.101442 0.169645,7.67e-4 1.503262,-0.619484 2.551009,-1.186254 0.231611,-0.125287 0.468488,-0.249781 0.526391,-0.276648 0.0579,-0.02687 0.556804,-0.309578 1.108668,-0.628246 0.551866,-0.318666 1.072992,-0.616885 1.158062,-0.662707 0.08507,-0.04582 0.517882,-0.322125 0.961807,-0.614007 l 0.807136,-0.530693 0.04522,-0.48228 c 0.05032,-0.536796 0.198005,-0.826155 0.591595,-1.159132 0.223045,-0.188699 0.321997,-0.219161 0.766906,-0.236084 0.301042,-0.01145 0.45433,-0.209998 0.839534,-1.087374 0.04899,-0.111585 0.135786,-0.309395 0.192877,-0.439577 0.265671,-0.605763 0.449024,-1.234359 0.572354,-1.962208 0.101854,-0.60109 0.140947,-0.675252 0.355975,-0.675252 0.242179,0 0.343736,0.159135 0.29085,0.455743 -0.221866,1.244292 -0.52502,2.146385 -1.12703,3.353715 -0.540614,1.084199 0.08545,0.6911 1.00463,-0.630794 0.332063,-0.477556 0.842968,-1.404787 1.136604,-2.062815 0.195418,-0.437924 0.333761,-0.759376 0.374166,-0.86942 0.03603,-0.09812 0.08806,-0.11553 0.238448,-0.07975 0.105792,0.02518 0.221412,0.07314 0.256923,0.106584 0.06506,0.06127 -0.04116,0.473388 -0.208453,0.808771 -0.04638,0.09299 -0.154189,0.321229 -0.239575,0.507204 -0.276112,0.601413 -0.647677,1.27603 -0.912562,1.656866 -0.590668,0.849219 -0.712944,1.000842 -1.154432,1.431511 -0.412745,0.402629 -0.462245,0.479563 -0.462245,0.718395 0,0.784048 -0.843909,1.548697 -1.545385,1.400244 -0.241397,-0.05109 -0.400234,0.08853 -0.7697,0.676547 -0.132724,0.21124 -0.99818,1.366955 -1.316702,1.758307 -1.439008,1.76803 -3.295204,3.588162 -4.793216,4.700087 -0.422695,0.313751 -1.808433,1.234808 -1.965149,1.306174 -0.05642,0.02569 -0.292097,0.152961 -0.523709,0.282812 -1.116697,0.626069 -2.018143,0.984465 -3.72329,1.480305 -1.124356,0.326952 -2.890124,0.470134 -4.609435,0.373765 z m 3.279364,-0.568804 c 1.041995,-0.18474 2.193437,-0.500595 2.947796,-0.808621 0.659389,-0.269245 1.692155,-0.773879 2.267339,-1.107874 0.362697,-0.210609 0.712803,-0.41336 0.778009,-0.450554 0.63431,-0.361818 1.72718,-1.251102 1.537522,-1.251102 -0.06292,0 -0.124918,0.02283 -0.137786,0.05072 -0.03502,0.07592 -2.284353,1.186341 -2.971188,1.466769 -0.115807,0.04728 -0.330067,0.136024 -0.476134,0.197205 -0.146068,0.06119 -0.303984,0.111426 -0.35093,0.111655 -0.04695,2.02e-4 -0.173537,0.04474 -0.281324,0.09891 -0.10779,0.05417 -0.305531,0.118299 -0.439434,0.142504 -0.133904,0.0242 -0.259068,0.06835 -0.278146,0.09809 -0.01908,0.02974 -0.16875,0.07538 -0.332606,0.101419 -0.163857,0.02604 -0.329505,0.07164 -0.368107,0.101337 -0.0386,0.02969 -0.228103,0.08555 -0.421112,0.124129 -0.193011,0.03858 -0.508847,0.104011 -0.701858,0.14541 -1.075463,0.230681 -1.318724,0.269821 -1.676949,0.269821 -0.362991,0 -0.493458,-0.06776 -0.324355,-0.168463 0.03804,-0.02265 0.251232,-0.07137 0.473752,-0.108261 0.880846,-0.146021 1.476388,-0.259333 1.87848,-0.357409 0.231614,-0.05649 0.600165,-0.146634 0.819005,-0.20031 0.21884,-0.05368 0.435755,-0.120142 0.482031,-0.147701 0.04628,-0.02756 0.183062,-0.07389 0.303965,-0.102967 0.120904,-0.02907 0.393534,-0.118639 0.605846,-0.199027 0.212311,-0.08039 0.464979,-0.170084 0.561484,-0.199319 0.284477,-0.08618 2.204821,-0.965954 2.667052,-1.221867 1.364451,-0.75543 1.872562,-1.07414 2.807423,-1.76096 0.555929,-0.408426 1.263342,-1.085249 1.263342,-1.208716 0,-0.109527 -0.13875,-0.08845 -0.185177,0.02813 -0.02221,0.0558 -0.06987,0.101442 -0.105913,0.101442 -0.05995,0 -0.468526,0.253455 -0.551133,0.341892 -0.09209,0.09859 -1.919084,1.227145 -2.38631,1.474053 -0.173709,0.0918 -0.442169,0.235841 -0.596578,0.320099 -0.328799,0.179415 -1.239122,0.616632 -1.789731,0.859584 -0.833889,0.367947 -1.048697,0.453358 -1.140174,0.453358 -0.0523,0 -0.125097,0.0276 -0.161768,0.06134 -0.03668,0.03374 -0.177221,0.09214 -0.312326,0.129795 -0.306814,0.0855 -0.659921,0.203968 -0.996371,0.334284 -0.248922,0.09642 -0.477526,0.07988 -0.477526,-0.03453 0,-0.08055 0.391784,-0.254287 0.947505,-0.420171 0.270214,-0.08066 0.554466,-0.173696 0.63167,-0.206749 0.07721,-0.03306 0.440413,-0.181354 0.807134,-0.329558 0.699792,-0.28281 2.213531,-1.004789 2.888593,-1.377721 0.669833,-0.370037 1.42594,-0.814378 1.462912,-0.859706 0.0193,-0.02367 0.161426,-0.116057 0.315835,-0.205323 1.127668,-0.651902 3.474187,-2.547565 3.474187,-2.806663 0,-0.05551 0.03158,-0.100935 0.07018,-0.100935 0.03861,0 0.07019,-0.02863 0.07019,-0.06361 0,-0.08425 -0.256254,0.04765 -0.599531,0.308597 -0.306872,0.233275 -2.181309,1.458005 -2.348262,1.534319 -0.05791,0.02647 -0.200029,0.108202 -0.315835,0.18163 -0.115807,0.07343 -0.273724,0.164767 -0.350927,0.202977 -0.07721,0.03821 -0.250914,0.134802 -0.386022,0.214652 -0.470321,0.277955 -2.419374,1.216279 -3.084894,1.485143 -0.368519,0.148878 -0.764784,0.309717 -0.880591,0.357419 -0.543858,0.224017 -0.676942,0.259514 -0.741116,0.19768 -0.109835,-0.10583 0.07787,-0.255013 0.530559,-0.421669 0.231613,-0.08527 0.515864,-0.19527 0.63167,-0.244447 0.115806,-0.04918 0.415354,-0.17567 0.665661,-0.281092 0.54119,-0.227933 2.319342,-1.092263 2.668154,-1.296946 0.135108,-0.07928 0.308817,-0.175413 0.386021,-0.213622 0.07721,-0.03821 0.235122,-0.129433 0.350927,-0.202718 0.115807,-0.07329 0.273725,-0.164455 0.350929,-0.202595 0.07721,-0.03814 0.319826,-0.183149 0.539162,-0.322234 1.924882,-1.220613 3.63688,-2.533534 3.63688,-2.789096 0,-0.14015 -0.214463,-0.05616 -0.734394,0.287609 -0.624861,0.413149 -0.681132,0.448133 -1.441359,0.896059 -0.315638,0.185976 -0.657952,0.389929 -0.760696,0.453231 -0.25315,0.155966 -0.435499,0.258545 -0.83285,0.468512 -0.185107,0.09781 -0.4471,0.240293 -0.582207,0.31662 -0.27461,0.155136 -3.157746,1.543372 -3.64965,1.757313 -0.388666,0.169041 -0.8466,0.356619 -1.263341,0.517488 -0.17371,0.06706 -0.410584,0.16093 -0.526392,0.208614 -0.115805,0.04769 -0.352681,0.138221 -0.52639,0.201195 -0.173709,0.06297 -0.419555,0.157073 -0.54632,0.209113 -0.126768,0.05204 -0.26412,0.09461 -0.305228,0.09461 -0.04111,0 -0.174267,0.04064 -0.295907,0.09031 -0.302513,0.123533 -0.664434,0.245957 -0.958113,0.324096 -0.135108,0.03595 -0.308816,0.09167 -0.386021,0.12383 -0.224876,0.09368 -1.374985,0.416539 -2.281031,0.640344 -0.250914,0.06198 -0.60257,0.15691 -0.78146,0.210954 -0.17889,0.05404 -0.388452,0.09826 -0.465693,0.09826 -0.07724,0 -0.294088,0.04265 -0.48188,0.09478 -1.063349,0.295176 -3.521726,0.662466 -5.710637,0.853191 -1.296071,0.112929 -1.355785,0.147496 -0.754495,0.436757 0.202661,0.09749 0.5106,0.250216 0.684309,0.339381 0.489728,0.251382 1.209688,0.581682 1.40371,0.64399 0.09651,0.03099 0.349175,0.12147 0.561487,0.201066 0.957624,0.359009 2.330363,0.68014 3.474185,0.812732 0.74288,0.08611 2.782988,0.02689 3.50928,-0.101881 z m -8.625315,-5.342646 c -0.02343,-0.05579 -0.06081,-0.144666 -0.08306,-0.197498 -0.02624,-0.06227 0.01208,-0.103901 0.10889,-0.118348 0.132216,-0.01973 0.108675,-0.06078 -0.205189,-0.357881 l -0.354539,-0.335594 v 0.498236 c 0,0.491011 0.002,0.496491 0.137928,0.377964 0.133321,-0.116256 0.140728,-0.114346 0.221822,0.05714 0.08708,0.184148 0.249301,0.254921 0.17415,0.07598 z m 23.629038,-5.381281 c 0.143903,-0.114293 0.26164,-0.251238 0.26164,-0.304322 0,-0.124455 -0.01361,-0.122766 -0.342778,0.04256 -0.275668,0.138449 -0.395228,0.29087 -0.32007,0.408046 0.06235,0.09719 0.122079,0.07541 0.401208,-0.146281 z m -0.565843,-0.844589 c 0.04288,-0.09069 0.104482,-0.164895 0.136894,-0.164895 0.03241,0 0.05892,-0.06086 0.05892,-0.135254 0,-0.258802 -0.287883,-0.133879 -0.519089,0.225252 -0.159454,0.247679 -0.104395,0.420125 0.100417,0.314509 0.07969,-0.0411 0.179979,-0.148919 0.222861,-0.239612 z M 15.298991,28.120331 c 0,-0.115359 -0.442954,-0.450057 -0.595626,-0.450057 -0.09535,0 -0.01672,0.181102 0.15255,0.351341 0.197921,0.199055 0.443076,0.253675 0.443076,0.09872 z m 0.631669,-0.65145 c 0,-0.303152 -0.497074,-0.834502 -0.646225,-0.690787 -0.04984,0.04803 0.02067,0.197786 0.22581,0.479565 0.291304,0.400144 0.420415,0.465011 0.420415,0.211222 z m 15.983931,9.15119 c -0.456329,-0.312845 -0.336696,-0.354753 0.439492,-0.153952 0.543305,0.140553 0.542743,0.140132 0.315835,0.237433 -0.310889,0.13331 -0.463751,0.116418 -0.755327,-0.08348 z M 23.42877,33.992309 c -0.650868,-0.09142 -0.760295,-0.128704 -0.760295,-0.259031 0,-0.102225 0.642156,-0.720459 0.748334,-0.720459 0.220171,0 1.387135,0.626112 1.413582,0.75843 0.02621,0.131146 -0.353898,0.327121 -0.611071,0.315054 -0.100231,-0.0047 -0.455972,-0.047 -0.79055,-0.09399 z m 1.06453,-0.775205 c -0.05791,-0.03204 -0.246211,-0.124433 -0.418461,-0.2053 -1.1372,-0.53388 -1.520048,-2.022099 -0.794649,-3.088975 0.388073,-0.570757 1.169869,-0.968942 1.898427,-0.966908 0.287397,7.73e-4 0.782638,0.132118 1.091092,0.289308 0.262496,0.13377 0.890643,0.787056 0.890643,0.926287 0,0.0607 0.04637,0.169438 0.103043,0.241638 0.117157,0.14925 0.153056,1.279644 0.04272,1.345347 -0.03563,0.02122 -0.08617,0.132372 -0.112295,0.247007 -0.0739,0.324252 -0.83115,1.014966 -1.271142,1.159471 -0.378335,0.124255 -1.242148,0.155757 -1.429385,0.05212 z"
       id="path66795" />
  </g>
</svg>
